<?xml version="1.0" encoding="UTF-8" standalone="no"?>
<!DOCTYPE svg PUBLIC "-//W3C//DTD SVG 1.1//EN"
 "http://www.w3.org/Graphics/SVG/1.1/DTD/svg11.dtd">
<!-- Generated by graphviz version 2.43.0 (0)
 -->
<!-- Title: tol Pages: 1 -->
<svg width="287pt" height="172pt"
 viewBox="0.00 0.00 287.00 172.00" xmlns="http://www.w3.org/2000/svg" xmlns:xlink="http://www.w3.org/1999/xlink">
<g id="graph0" class="graph" transform="scale(1 1) rotate(0) translate(4 168)">
<title>tol</title>
<polygon fill="#fafaf9" stroke="transparent" points="-4,4 -4,-168 283,-168 283,4 -4,4"/>
<!-- Cellular Organisms -->
<g id="node1" class="node">
<title>Cellular Organisms</title>
<text text-anchor="middle" x="144" y="-154.2" font-family="Ubuntu" font-size="11.00">Cellular Organisms</text>
</g>
<!-- Bacteria -->
<g id="node2" class="node">
<title>Bacteria</title>
<text text-anchor="middle" x="74" y="-104.2" font-family="Ubuntu" font-size="11.00">Bacteria</text>
</g>
<!-- Cellular Organisms&#45;&gt;Bacteria -->
<g id="edge1" class="edge">
<title>Cellular Organisms&#45;&gt;Bacteria</title>
<path fill="none" stroke="black" d="M135.13,-149.92C121.74,-140.74 96.49,-123.42 83.01,-114.18"/>
</g>
<!-- Eukaryotes -->
<g id="node3" class="node">
<title>Eukaryotes</title>
<text text-anchor="middle" x="144" y="-104.2" font-family="Ubuntu" font-size="11.00">Eukaryotes</text>
</g>
<!-- Cellular Organisms&#45;&gt;Eukaryotes -->
<g id="edge2" class="edge">
<title>Cellular Organisms&#45;&gt;Eukaryotes</title>
<path fill="none" stroke="black" d="M144,-149.72C144,-140.47 144,-123.29 144,-114.12"/>
</g>
<!-- Archaea -->
<g id="node4" class="node">
<title>Archaea</title>
<text text-anchor="middle" x="214" y="-104.2" font-family="Ubuntu" font-size="11.00">Archaea</text>
</g>
<!-- Cellular Organisms&#45;&gt;Archaea -->
<g id="edge3" class="edge">
<title>Cellular Organisms&#45;&gt;Archaea</title>
<path fill="none" stroke="black" d="M152.87,-149.92C166.26,-140.74 191.51,-123.42 204.99,-114.18"/>
</g>
<!-- Land Plants -->
<g id="node5" class="node">
<title>Land Plants</title>
<text text-anchor="middle" x="80" y="-54.2" font-family="Ubuntu" font-size="11.00">Land Plants</text>
</g>
<!-- Eukaryotes&#45;&gt;Land Plants -->
<g id="edge4" class="edge">
<title>Eukaryotes&#45;&gt;Land Plants</title>
<path fill="none" stroke="black" d="M135.89,-99.92C123.65,-90.74 100.57,-73.42 88.24,-64.18"/>
</g>
<!-- Fungi -->
<g id="node6" class="node">
<title>Fungi</title>
<text text-anchor="middle" x="144" y="-54.2" font-family="Ubuntu" font-size="11.00">Fungi</text>
</g>
<!-- Eukaryotes&#45;&gt;Fungi -->
<g id="edge5" class="edge">
<title>Eukaryotes&#45;&gt;Fungi</title>
<path fill="none" stroke="black" d="M144,-99.72C144,-90.47 144,-73.29 144,-64.12"/>
</g>
<!-- Animals -->
<g id="node7" class="node">
<title>Animals</title>
<text text-anchor="middle" x="199" y="-54.2" font-family="Ubuntu" font-size="11.00">Animals</text>
</g>
<!-- Eukaryotes&#45;&gt;Animals -->
<g id="edge6" class="edge">
<title>Eukaryotes&#45;&gt;Animals</title>
<path fill="none" stroke="black" d="M151.19,-99.72C161.79,-90.47 181.48,-73.29 191.98,-64.12"/>
</g>
<!-- Ferns -->
<g id="node10" class="node">
<title>Ferns</title>
<text text-anchor="middle" x="15" y="-4.2" font-family="Ubuntu" font-size="11.00">Ferns</text>
</g>
<!-- Land Plants&#45;&gt;Ferns -->
<g id="edge9" class="edge">
<title>Land Plants&#45;&gt;Ferns</title>
<path fill="none" stroke="black" d="M71.77,-49.92C59.33,-40.74 35.89,-23.42 23.37,-14.18"/>
</g>
<!-- Spermatophyta -->
<g id="node11" class="node">
<title>Spermatophyta</title>
<text text-anchor="middle" x="89" y="-4.2" font-family="Ubuntu" font-size="11.00">Spermatophyta</text>
</g>
<!-- Land Plants&#45;&gt;Spermatophyta -->
<g id="edge10" class="edge">
<title>Land Plants&#45;&gt;Spermatophyta</title>
<path fill="none" stroke="black" d="M81.18,-49.72C82.91,-40.47 86.13,-23.29 87.85,-14.12"/>
</g>
<!-- Mammals -->
<g id="node8" class="node">
<title>Mammals</title>
<text text-anchor="middle" x="191" y="-4.2" font-family="Ubuntu" font-size="11.00">Mammals</text>
</g>
<!-- Animals&#45;&gt;Mammals -->
<g id="edge7" class="edge">
<title>Animals&#45;&gt;Mammals</title>
<path fill="none" stroke="black" d="M197.95,-49.72C196.41,-40.47 193.55,-23.29 192.02,-14.12"/>
</g>
<!-- Reptiles -->
<g id="node9" class="node">
<title>Reptiles</title>
<text text-anchor="middle" x="257" y="-4.2" font-family="Ubuntu" font-size="11.00">Reptiles</text>
</g>
<!-- Animals&#45;&gt;Reptiles -->
<g id="edge8" class="edge">
<title>Animals&#45;&gt;Reptiles</title>
<path fill="none" stroke="black" d="M206.58,-49.72C217.76,-40.47 238.53,-23.29 249.6,-14.12"/>
</g>
</g>
</svg>
